<mxfile host="app.diagrams.net" agent="Mozilla/5.0 (Windows NT 10.0; Win64; x64) AppleWebKit/537.36 (KHTML, like Gecko) Chrome/131.0.0.0 Safari/537.36 Edg/131.0.0.0" version="24.9.2">
  <diagram name="Page-1" id="yfexSz4o3W-W5R2Zji1a">
    <mxGraphModel dx="1674" dy="784" grid="1" gridSize="10" guides="1" tooltips="1" connect="1" arrows="1" fold="1" page="1" pageScale="1" pageWidth="850" pageHeight="1100" math="0" shadow="0">
      <root>
        <mxCell id="0" />
        <mxCell id="1" parent="0" />
        <mxCell id="IPVnN4k0WHXBOFVn2Vio-3" value="" style="edgeStyle=orthogonalEdgeStyle;rounded=0;orthogonalLoop=1;jettySize=auto;html=1;" edge="1" parent="1" source="IPVnN4k0WHXBOFVn2Vio-1" target="IPVnN4k0WHXBOFVn2Vio-2">
          <mxGeometry relative="1" as="geometry" />
        </mxCell>
        <mxCell id="IPVnN4k0WHXBOFVn2Vio-1" value="Landing Page - TidyTime - Start" style="rounded=1;whiteSpace=wrap;html=1;" vertex="1" parent="1">
          <mxGeometry x="365" y="30" width="120" height="60" as="geometry" />
        </mxCell>
        <mxCell id="IPVnN4k0WHXBOFVn2Vio-5" value="" style="edgeStyle=orthogonalEdgeStyle;rounded=0;orthogonalLoop=1;jettySize=auto;html=1;" edge="1" parent="1" source="IPVnN4k0WHXBOFVn2Vio-2" target="IPVnN4k0WHXBOFVn2Vio-4">
          <mxGeometry relative="1" as="geometry" />
        </mxCell>
        <mxCell id="IPVnN4k0WHXBOFVn2Vio-7" value="" style="edgeStyle=orthogonalEdgeStyle;rounded=0;orthogonalLoop=1;jettySize=auto;html=1;" edge="1" parent="1" source="IPVnN4k0WHXBOFVn2Vio-2" target="IPVnN4k0WHXBOFVn2Vio-6">
          <mxGeometry relative="1" as="geometry" />
        </mxCell>
        <mxCell id="IPVnN4k0WHXBOFVn2Vio-9" value="" style="edgeStyle=orthogonalEdgeStyle;rounded=0;orthogonalLoop=1;jettySize=auto;html=1;" edge="1" parent="1" source="IPVnN4k0WHXBOFVn2Vio-2" target="IPVnN4k0WHXBOFVn2Vio-8">
          <mxGeometry relative="1" as="geometry" />
        </mxCell>
        <mxCell id="IPVnN4k0WHXBOFVn2Vio-2" value="Choice Page - Timer - Stopwatch - Todo" style="rounded=1;whiteSpace=wrap;html=1;" vertex="1" parent="1">
          <mxGeometry x="365" y="170" width="120" height="60" as="geometry" />
        </mxCell>
        <mxCell id="IPVnN4k0WHXBOFVn2Vio-4" value="Timer Class" style="whiteSpace=wrap;html=1;rounded=1;" vertex="1" parent="1">
          <mxGeometry x="165" y="170" width="120" height="60" as="geometry" />
        </mxCell>
        <mxCell id="IPVnN4k0WHXBOFVn2Vio-6" value="Todo Class" style="whiteSpace=wrap;html=1;rounded=1;" vertex="1" parent="1">
          <mxGeometry x="566" y="170" width="120" height="60" as="geometry" />
        </mxCell>
        <mxCell id="IPVnN4k0WHXBOFVn2Vio-8" value="Stopwatch Class" style="whiteSpace=wrap;html=1;rounded=1;" vertex="1" parent="1">
          <mxGeometry x="365" y="310" width="120" height="60" as="geometry" />
        </mxCell>
      </root>
    </mxGraphModel>
  </diagram>
</mxfile>
